<svg width="25" height="27" viewBox="0 0 25 27" fill="none" xmlns="http://www.w3.org/2000/svg">
<g filter="url(#filter0_d_1_403)">
<path d="M19.5 16.578H6.16667V3.24468C6.16667 3.02367 6.07887 2.8117 5.92259 2.65542C5.76631 2.49914 5.55435 2.41135 5.33333 2.41135C5.11232 2.41135 4.90036 2.49914 4.74408 2.65542C4.5878 2.8117 4.5 3.02367 4.5 3.24468V17.4113C4.5 17.6324 4.5878 17.8443 4.74408 18.0006C4.90036 18.1569 5.11232 18.2447 5.33333 18.2447H19.5C19.721 18.2447 19.933 18.1569 20.0893 18.0006C20.2455 17.8443 20.3333 17.6324 20.3333 17.4113C20.3333 17.1903 20.2455 16.9784 20.0893 16.8221C19.933 16.6658 19.721 16.578 19.5 16.578Z" fill="#464255"/>
<path d="M7.83337 9.91137V14.078C7.83337 14.299 7.92117 14.511 8.07745 14.6673C8.23373 14.8236 8.44569 14.9114 8.66671 14.9114C8.88772 14.9114 9.09968 14.8236 9.25596 14.6673C9.41224 14.511 9.50004 14.299 9.50004 14.078V9.91137C9.50004 9.69035 9.41224 9.47839 9.25596 9.32211C9.09968 9.16583 8.88772 9.07803 8.66671 9.07803C8.44569 9.07803 8.23373 9.16583 8.07745 9.32211C7.92117 9.47839 7.83337 9.69035 7.83337 9.91137Z" fill="#464255"/>
<path d="M11.1666 5.74468V14.078C11.1666 14.299 11.2544 14.511 11.4107 14.6673C11.567 14.8235 11.7789 14.9113 12 14.9113C12.221 14.9113 12.4329 14.8235 12.5892 14.6673C12.7455 14.511 12.8333 14.299 12.8333 14.078V5.74468C12.8333 5.52367 12.7455 5.3117 12.5892 5.15542C12.4329 4.99914 12.221 4.91135 12 4.91135C11.7789 4.91135 11.567 4.99914 11.4107 5.15542C11.2544 5.3117 11.1666 5.52367 11.1666 5.74468Z" fill="#464255"/>
<path d="M14.5 7.41137V14.078C14.5 14.299 14.5878 14.511 14.7441 14.6673C14.9004 14.8236 15.1123 14.9114 15.3333 14.9114C15.5543 14.9114 15.7663 14.8236 15.9226 14.6673C16.0789 14.511 16.1667 14.299 16.1667 14.078V7.41137C16.1667 7.19035 16.0789 6.97839 15.9226 6.82211C15.7663 6.66583 15.5543 6.57803 15.3333 6.57803C15.1123 6.57803 14.9004 6.66583 14.7441 6.82211C14.5878 6.97839 14.5 7.19035 14.5 7.41137Z" fill="#464255"/>
<path d="M17.8334 3.24468V14.078C17.8334 14.299 17.9212 14.511 18.0775 14.6673C18.2337 14.8235 18.4457 14.9113 18.6667 14.9113C18.8877 14.9113 19.0997 14.8235 19.256 14.6673C19.4122 14.511 19.5 14.299 19.5 14.078V3.24468C19.5 3.02367 19.4122 2.8117 19.256 2.65542C19.0997 2.49914 18.8877 2.41135 18.6667 2.41135C18.4457 2.41135 18.2337 2.49914 18.0775 2.65542C17.9212 2.8117 17.8334 3.02367 17.8334 3.24468Z" fill="#464255"/>
</g>
<defs>
<filter id="filter0_d_1_403" x="-2" y="0.74469" width="28" height="28" filterUnits="userSpaceOnUse" color-interpolation-filters="sRGB">
<feFlood flood-opacity="0" result="BackgroundImageFix"/>
<feColorMatrix in="SourceAlpha" type="matrix" values="0 0 0 0 0 0 0 0 0 0 0 0 0 0 0 0 0 0 127 0" result="hardAlpha"/>
<feOffset dy="4"/>
<feGaussianBlur stdDeviation="2"/>
<feComposite in2="hardAlpha" operator="out"/>
<feColorMatrix type="matrix" values="0 0 0 0 0 0 0 0 0 0 0 0 0 0 0 0 0 0 0.25 0"/>
<feBlend mode="normal" in2="BackgroundImageFix" result="effect1_dropShadow_1_403"/>
<feBlend mode="normal" in="SourceGraphic" in2="effect1_dropShadow_1_403" result="shape"/>
</filter>
</defs>
</svg>
