<svg width="20" height="21" viewBox="0 0 20 21" fill="none" xmlns="http://www.w3.org/2000/svg">
<path d="M5 18.2447H15C15.663 18.2447 16.2989 17.9813 16.7678 17.5125C17.2366 17.0437 17.5 16.4078 17.5 15.7447V5.74473C17.5 5.08169 17.2366 4.4458 16.7678 3.97696C16.2989 3.50812 15.663 3.24473 15 3.24473H14.1667C14.1667 3.02372 14.0789 2.81175 13.9226 2.65547C13.7663 2.49919 13.5543 2.4114 13.3333 2.4114C13.1123 2.4114 12.9004 2.49919 12.7441 2.65547C12.5878 2.81175 12.5 3.02372 12.5 3.24473H7.5C7.5 3.02372 7.4122 2.81175 7.25592 2.65547C7.09964 2.49919 6.88768 2.4114 6.66667 2.4114C6.44565 2.4114 6.23369 2.49919 6.07741 2.65547C5.92113 2.81175 5.83333 3.02372 5.83333 3.24473H5C4.33696 3.24473 3.70107 3.50812 3.23223 3.97696C2.76339 4.4458 2.5 5.08169 2.5 5.74473V15.7447C2.5 16.4078 2.76339 17.0437 3.23223 17.5125C3.70107 17.9813 4.33696 18.2447 5 18.2447ZM4.16667 5.74473C4.16667 5.52372 4.25446 5.31175 4.41074 5.15547C4.56702 4.99919 4.77899 4.9114 5 4.9114H5.83333V5.74473C5.83333 5.96574 5.92113 6.1777 6.07741 6.33399C6.23369 6.49027 6.44565 6.57806 6.66667 6.57806C6.88768 6.57806 7.09964 6.49027 7.25592 6.33399C7.4122 6.1777 7.5 5.96574 7.5 5.74473V4.9114H12.5V5.74473C12.5 5.96574 12.5878 6.1777 12.7441 6.33399C12.9004 6.49027 13.1123 6.57806 13.3333 6.57806C13.5543 6.57806 13.7663 6.49027 13.9226 6.33399C14.0789 6.1777 14.1667 5.96574 14.1667 5.74473V4.9114H15C15.221 4.9114 15.433 4.99919 15.5893 5.15547C15.7455 5.31175 15.8333 5.52372 15.8333 5.74473V8.24473H4.16667V5.74473ZM4.16667 9.9114H15.8333V15.7447C15.8333 15.9657 15.7455 16.1777 15.5893 16.334C15.433 16.4903 15.221 16.5781 15 16.5781H5C4.77899 16.5781 4.56702 16.4903 4.41074 16.334C4.25446 16.1777 4.16667 15.9657 4.16667 15.7447V9.9114Z" fill="#464255"/>
</svg>
