<svg width="20" height="21" viewBox="0 0 20 21" fill="none" xmlns="http://www.w3.org/2000/svg">
<path d="M15.9916 14.6697C16.4243 14.1532 16.6631 13.5018 16.6666 12.828C16.6666 12.0544 16.3593 11.3126 15.8124 10.7656C15.2654 10.2186 14.5235 9.91133 13.75 9.91133H13.5166C14.2039 9.09465 14.5815 8.06202 14.5833 6.99466C14.5852 6.22512 14.3934 5.46747 14.0254 4.7916C13.6575 4.11572 13.1253 3.54337 12.4779 3.12732C11.8305 2.71128 11.0888 2.46494 10.3211 2.41102C9.55347 2.35709 8.7846 2.49733 8.08541 2.81879C7.38622 3.14024 6.77922 3.63258 6.3204 4.25038C5.86158 4.86818 5.56569 5.59157 5.46004 6.35383C5.35439 7.11609 5.44237 7.89268 5.71586 8.61198C5.98935 9.33129 6.43956 9.97015 7.02496 10.4697C5.45018 11.0715 4.09498 12.1369 3.13831 13.525C2.18164 14.9131 1.66849 16.5588 1.66663 18.2447C1.66663 18.4657 1.75442 18.6776 1.9107 18.8339C2.06698 18.9902 2.27895 19.078 2.49996 19.078C2.72097 19.078 2.93293 18.9902 3.08922 18.8339C3.2455 18.6776 3.33329 18.4657 3.33329 18.2447C3.33329 16.4766 4.03567 14.7809 5.28591 13.5306C6.53616 12.2804 8.23185 11.578 9.99996 11.578H11.125C10.8809 12.0747 10.7871 12.6318 10.8552 13.181C10.9233 13.7303 11.1503 14.2476 11.5083 14.6697C10.7984 15.0668 10.2071 15.6459 9.79553 16.3476C9.38393 17.0492 9.16684 17.8479 9.16663 18.6613C9.16663 18.8823 9.25442 19.0943 9.4107 19.2506C9.56698 19.4069 9.77895 19.4947 9.99996 19.4947C10.221 19.4947 10.4329 19.4069 10.5892 19.2506C10.7455 19.0943 10.8333 18.8823 10.8333 18.6613C10.8333 17.8878 11.1406 17.1459 11.6876 16.5989C12.2345 16.052 12.9764 15.7447 13.75 15.7447C14.5235 15.7447 15.2654 16.052 15.8124 16.5989C16.3593 17.1459 16.6666 17.8878 16.6666 18.6613C16.6666 18.8823 16.7544 19.0943 16.9107 19.2506C17.067 19.4069 17.2789 19.4947 17.5 19.4947C17.721 19.4947 17.9329 19.4069 18.0892 19.2506C18.2455 19.0943 18.3333 18.8823 18.3333 18.6613C18.3331 17.8479 18.116 17.0492 17.7044 16.3476C17.2928 15.6459 16.7016 15.0668 15.9916 14.6697ZM9.99996 9.91133C9.4231 9.91133 8.85919 9.74027 8.37955 9.41978C7.8999 9.09929 7.52607 8.64377 7.30531 8.11082C7.08456 7.57787 7.0268 6.99143 7.13934 6.42565C7.25188 5.85987 7.52966 5.34017 7.93756 4.93227C8.34547 4.52436 8.86517 4.24658 9.43095 4.13404C9.99672 4.0215 10.5832 4.07926 11.1161 4.30001C11.6491 4.52077 12.1046 4.89461 12.4251 5.37425C12.7456 5.85389 12.9166 6.4178 12.9166 6.99466C12.9166 7.76821 12.6093 8.51008 12.0624 9.05706C11.5154 9.60404 10.7735 9.91133 9.99996 9.91133ZM13.75 14.078C13.4184 14.078 13.1005 13.9463 12.8661 13.7119C12.6317 13.4775 12.5 13.1595 12.5 12.828C12.5021 12.4971 12.6345 12.1805 12.8685 11.9465C13.1024 11.7126 13.4191 11.5802 13.75 11.578C14.0815 11.578 14.3994 11.7097 14.6338 11.9441C14.8683 12.1785 15 12.4965 15 12.828C15 13.1595 14.8683 13.4775 14.6338 13.7119C14.3994 13.9463 14.0815 14.078 13.75 14.078Z" fill="#464255"/>
</svg>
