<svg width="6" height="6" viewBox="0 0 6 6" fill="none" xmlns="http://www.w3.org/2000/svg">
<g clip-path="url(#clip0_102_56)">
<path d="M0.928146 3.74445L2.5752 5.40498C2.66345 5.49392 2.78313 5.54388 2.90791 5.54388C3.03269 5.54388 3.15237 5.49392 3.24062 5.40498L4.88768 3.74445C4.9734 3.65497 5.02083 3.53513 5.01976 3.41074C5.01869 3.28634 4.96919 3.16735 4.88194 3.07938C4.79469 2.99142 4.67666 2.94152 4.55328 2.94044C4.42989 2.93936 4.31102 2.98718 4.22226 3.0736L3.3785 3.92426L3.3785 0.799635C3.3785 0.673807 3.32892 0.553133 3.24067 0.464159C3.15241 0.375186 3.03272 0.3252 2.90791 0.3252C2.7831 0.3252 2.66341 0.375185 2.57515 0.464159C2.4869 0.553133 2.43732 0.673807 2.43732 0.799635L2.43732 3.92426L1.59356 3.0736C1.5048 2.98718 1.38593 2.93936 1.26255 2.94044C1.13916 2.94152 1.02113 2.99142 0.933878 3.07938C0.846627 3.16735 0.797136 3.28634 0.796064 3.41074C0.794992 3.53513 0.842424 3.65497 0.928146 3.74445V3.74445Z" fill="#FF5B5B"/>
</g>
<defs>
<clipPath id="clip0_102_56">
<rect width="5.64706" height="5.69322" fill="white" transform="translate(5.73154 5.78122) rotate(-180)"/>
</clipPath>
</defs>
</svg>
