<svg width="20" height="21" viewBox="0 0 20 21" fill="none" xmlns="http://www.w3.org/2000/svg">
<path d="M2.49997 19.0782H5.83331C5.94298 19.0788 6.0517 19.0578 6.15323 19.0163C6.25476 18.9748 6.34711 18.9137 6.42497 18.8365L16.425 8.8365C16.5031 8.75903 16.5651 8.66686 16.6074 8.56531C16.6497 8.46376 16.6715 8.35484 16.6715 8.24483C16.6715 8.13482 16.6497 8.0259 16.6074 7.92435C16.5651 7.8228 16.5031 7.73064 16.425 7.65317L13.0916 4.31983C13.0142 4.24173 12.922 4.17973 12.8205 4.13742C12.7189 4.09512 12.61 4.07333 12.5 4.07333C12.39 4.07333 12.281 4.09512 12.1795 4.13742C12.0779 4.17973 11.9858 4.24173 11.9083 4.31983L1.90831 14.3198C1.83107 14.3977 1.76997 14.49 1.7285 14.5916C1.68703 14.6931 1.66601 14.8018 1.66664 14.9115V18.2448C1.66664 18.4658 1.75444 18.6778 1.91072 18.8341C2.067 18.9904 2.27896 19.0782 2.49997 19.0782ZM3.33331 15.2532L12.5 6.0865L14.6583 8.24483L5.49164 17.4115H3.33331V15.2532Z" fill="#464255"/>
<path d="M14.7584 2.653C14.6807 2.57531 14.5885 2.51367 14.487 2.47162C14.3854 2.42957 14.2766 2.40793 14.1668 2.40793C13.9448 2.40793 13.732 2.49609 13.5751 2.653C13.4182 2.80992 13.33 3.02275 13.33 3.24467C13.33 3.46659 13.4182 3.67942 13.5751 3.83634L16.9084 7.16967C16.9859 7.24778 17.0781 7.30978 17.1796 7.35208C17.2812 7.39439 17.3901 7.41617 17.5001 7.41617C17.6101 7.41617 17.719 7.39439 17.8206 7.35208C17.9221 7.30978 18.0143 7.24778 18.0918 7.16967C18.1699 7.0922 18.2319 7.00004 18.2742 6.89849C18.3165 6.79694 18.3383 6.68802 18.3383 6.57801C18.3383 6.468 18.3165 6.35908 18.2742 6.25753C18.2319 6.15598 18.1699 6.06381 18.0918 5.98634L14.7584 2.653Z" fill="#464255"/>
</svg>
