<svg width="20" height="21" viewBox="0 0 20 21" fill="none" xmlns="http://www.w3.org/2000/svg">
<path d="M10.5417 2.61138C10.3908 2.48229 10.1987 2.41136 10 2.41138H4.16671C3.94569 2.41138 3.73373 2.49917 3.57745 2.65545C3.42117 2.81173 3.33337 3.0237 3.33337 3.24471V18.2447C3.33337 18.4657 3.42117 18.6777 3.57745 18.834C3.73373 18.9902 3.94569 19.078 4.16671 19.078H15.8334C16.0544 19.078 16.2664 18.9902 16.4226 18.834C16.5789 18.6777 16.6667 18.4657 16.6667 18.2447V8.24471C16.6667 8.12434 16.6406 8.0054 16.5903 7.89607C16.5399 7.78674 16.4665 7.68962 16.375 7.61138L10.5417 2.61138ZM10.8334 5.05304L13.5834 7.41138H10.8334V5.05304ZM15 17.4114H5.00004V4.07804H9.16671V8.24471C9.16671 8.46572 9.25451 8.67769 9.41079 8.83397C9.56707 8.99025 9.77903 9.07804 10 9.07804H15V17.4114Z" fill="#464255"/>
</svg>
