<svg width="18" height="16" viewBox="0 0 18 16" fill="none" xmlns="http://www.w3.org/2000/svg">
<path d="M16.5002 1.91136H1.5002C1.02798 1.91136 0.66687 1.55024 0.66687 1.07802C0.66687 0.605801 1.02798 0.24469 1.5002 0.24469H16.5002C16.9724 0.24469 17.3335 0.605801 17.3335 1.07802C17.3335 1.55024 16.9724 1.91136 16.5002 1.91136Z" fill="#464255"/>
<path d="M11.5002 6.35575H1.5002C1.02798 6.35575 0.66687 5.99464 0.66687 5.52242C0.66687 5.0502 1.02798 4.68909 1.5002 4.68909H11.5002C11.9724 4.68909 12.3335 5.0502 12.3335 5.52242C12.3335 5.99464 11.9724 6.35575 11.5002 6.35575Z" fill="#464255"/>
<path d="M16.5002 10.8002H1.5002C1.02798 10.8002 0.66687 10.4391 0.66687 9.96688C0.66687 9.49466 1.02798 9.13354 1.5002 9.13354H16.5002C16.9724 9.13354 17.3335 9.49466 17.3335 9.96688C17.3335 10.4391 16.9724 10.8002 16.5002 10.8002Z" fill="#464255"/>
<path d="M11.5002 15.2446H1.5002C1.02798 15.2446 0.66687 14.8835 0.66687 14.4113C0.66687 13.9391 1.02798 13.5779 1.5002 13.5779H11.5002C11.9724 13.5779 12.3335 13.9391 12.3335 14.4113C12.3335 14.8835 11.9724 15.2446 11.5002 15.2446Z" fill="#464255"/>
</svg>
