<svg width="20" height="21" viewBox="0 0 20 21" fill="none" xmlns="http://www.w3.org/2000/svg">
<path d="M5.83333 10.7449V14.0782C5.83333 14.2992 5.92112 14.5112 6.0774 14.6674C6.23369 14.8237 6.44565 14.9115 6.66666 14.9115H9.99999C10.1097 14.9122 10.2184 14.8911 10.3199 14.8497C10.4214 14.8082 10.5138 14.7471 10.5917 14.6699L16.6667 8.60319C17.199 8.06363 17.4974 7.33615 17.4974 6.57819C17.4974 5.82024 17.199 5.09276 16.6667 4.55319L16.1917 4.07819C15.6441 3.56132 14.9196 3.27339 14.1667 3.27339C13.4137 3.27339 12.6892 3.56132 12.1417 4.07819L6.07499 10.1532C5.99776 10.2311 5.93665 10.3234 5.89518 10.4249C5.85371 10.5265 5.83269 10.6352 5.83333 10.7449ZM7.49999 11.0865L13.3333 5.25319C13.559 5.04109 13.857 4.923 14.1667 4.923C14.4763 4.923 14.7744 5.04109 15 5.25319L15.4667 5.71986C15.6865 5.9415 15.8099 6.24102 15.8099 6.55319C15.8099 6.86537 15.6865 7.16489 15.4667 7.38653L9.63333 13.2199H7.49999V11.0865Z" fill="#464255"/>
<path d="M16.6667 10.7447C16.4457 10.7447 16.2337 10.8325 16.0774 10.9888C15.9211 11.145 15.8333 11.357 15.8333 11.578V15.7447C15.8333 15.9657 15.7455 16.1777 15.5893 16.3339C15.433 16.4902 15.221 16.578 15 16.578H5C4.77899 16.578 4.56702 16.4902 4.41074 16.3339C4.25446 16.1777 4.16667 15.9657 4.16667 15.7447V5.74469C4.16667 5.52368 4.25446 5.31171 4.41074 5.15543C4.56702 4.99915 4.77899 4.91136 5 4.91136H9.16667C9.38768 4.91136 9.59964 4.82356 9.75592 4.66728C9.9122 4.511 10 4.29904 10 4.07802C10 3.85701 9.9122 3.64505 9.75592 3.48877C9.59964 3.33249 9.38768 3.24469 9.16667 3.24469H5C4.33696 3.24469 3.70107 3.50808 3.23223 3.97692C2.76339 4.44576 2.5 5.08165 2.5 5.74469V15.7447C2.5 16.4077 2.76339 17.0436 3.23223 17.5125C3.70107 17.9813 4.33696 18.2447 5 18.2447H15C15.663 18.2447 16.2989 17.9813 16.7678 17.5125C17.2366 17.0436 17.5 16.4077 17.5 15.7447V11.578C17.5 11.357 17.4122 11.145 17.2559 10.9888C17.0996 10.8325 16.8877 10.7447 16.6667 10.7447Z" fill="#464255"/>
</svg>
