<svg width="20" height="21" viewBox="0 0 20 21" fill="none" xmlns="http://www.w3.org/2000/svg">
<path d="M12.975 10.4695C13.688 9.86107 14.1974 9.04864 14.4344 8.14173C14.6714 7.23482 14.6246 6.27706 14.3004 5.39756C13.9761 4.51805 13.39 3.75911 12.6211 3.22305C11.8521 2.68699 10.9373 2.39958 9.99996 2.39958C9.0626 2.39958 8.14777 2.68699 7.37882 3.22305C6.60987 3.75911 6.02377 4.51805 5.69954 5.39756C5.37531 6.27706 5.32854 7.23482 5.56554 8.14173C5.80253 9.04864 6.3119 9.86107 7.02496 10.4695C5.45018 11.0714 4.09498 12.1367 3.13831 13.5248C2.18164 14.913 1.66849 16.5586 1.66663 18.2445C1.66663 18.4655 1.75442 18.6775 1.9107 18.8338C2.06698 18.99 2.27895 19.0778 2.49996 19.0778C2.72097 19.0778 2.93293 18.99 3.08922 18.8338C3.2455 18.6775 3.33329 18.4655 3.33329 18.2445C3.33329 16.4764 4.03567 14.7807 5.28591 13.5305C6.53616 12.2802 8.23185 11.5778 9.99996 11.5778C11.7681 11.5778 13.4638 12.2802 14.714 13.5305C15.9642 14.7807 16.6666 16.4764 16.6666 18.2445C16.6666 18.4655 16.7544 18.6775 16.9107 18.8338C17.067 18.99 17.2789 19.0778 17.5 19.0778C17.721 19.0778 17.9329 18.99 18.0892 18.8338C18.2455 18.6775 18.3333 18.4655 18.3333 18.2445C18.3314 16.5586 17.8183 14.913 16.8616 13.5248C15.9049 12.1367 14.5497 11.0714 12.975 10.4695ZM9.99996 9.91117C9.4231 9.91117 8.85919 9.74011 8.37955 9.41963C7.8999 9.09914 7.52607 8.64362 7.30531 8.11067C7.08456 7.57772 7.0268 6.99127 7.13934 6.42549C7.25188 5.85972 7.52966 5.34002 7.93757 4.93211C8.34547 4.52421 8.86517 4.24642 9.43095 4.13388C9.99673 4.02134 10.5832 4.0791 11.1161 4.29986C11.6491 4.52061 12.1046 4.89445 12.4251 5.37409C12.7456 5.85374 12.9166 6.41764 12.9166 6.99451C12.9166 7.76806 12.6093 8.50992 12.0624 9.0569C11.5154 9.60388 10.7735 9.91117 9.99996 9.91117Z" fill="#464255"/>
</svg>
