<svg width="7" height="6" viewBox="0 0 7 6" fill="none" xmlns="http://www.w3.org/2000/svg">
<g clip-path="url(#clip0_102_67)">
<path d="M1.39305 2.7956C1.4813 2.88455 1.60097 2.93451 1.72576 2.93451C1.85054 2.93451 1.97021 2.88455 2.05846 2.7956L2.90223 1.94494L2.90223 5.06957C2.90223 5.1954 2.95181 5.31607 3.04006 5.40505C3.12831 5.49402 3.24801 5.54401 3.37282 5.54401C3.49762 5.54401 3.61732 5.49402 3.70557 5.40505C3.79382 5.31607 3.8434 5.1954 3.8434 5.06957L3.8434 1.94494L4.68717 2.7956C4.77592 2.88203 4.89479 2.92985 5.01818 2.92877C5.14157 2.92768 5.2596 2.87779 5.34685 2.78982C5.4341 2.70186 5.48359 2.58287 5.48466 2.45847C5.48573 2.33408 5.4383 2.21423 5.35258 2.12475L3.70552 0.46423C3.61727 0.375287 3.4976 0.325322 3.37282 0.325322C3.24803 0.325322 3.12836 0.375287 3.04011 0.46423L1.39305 2.12475C1.30483 2.21372 1.25527 2.33437 1.25527 2.46018C1.25527 2.58598 1.30483 2.70663 1.39305 2.7956V2.7956Z" fill="#00A389"/>
</g>
<defs>
<clipPath id="clip0_102_67">
<rect width="5.64706" height="5.69322" fill="white" transform="translate(6.19644 5.78122) rotate(-180)"/>
</clipPath>
</defs>
</svg>
