<svg width="20" height="21" viewBox="0 0 20 21" fill="none" xmlns="http://www.w3.org/2000/svg">
<path d="M4.16663 18.2447H15.8333C16.4963 18.2447 17.1322 17.9813 17.6011 17.5125C18.0699 17.0436 18.3333 16.4077 18.3333 15.7447V5.74469C18.3333 5.08165 18.0699 4.44576 17.6011 3.97692C17.1322 3.50808 16.4963 3.24469 15.8333 3.24469H4.16663C3.50359 3.24469 2.8677 3.50808 2.39886 3.97692C1.93002 4.44576 1.66663 5.08165 1.66663 5.74469V15.7447C1.66663 16.4077 1.93002 17.0436 2.39886 17.5125C2.8677 17.9813 3.50359 18.2447 4.16663 18.2447ZM16.6666 11.578H12.5V9.91136H16.6666V11.578ZM3.33329 5.74469C3.33329 5.52368 3.42109 5.31171 3.57737 5.15543C3.73365 4.99915 3.94561 4.91136 4.16663 4.91136H15.8333C16.0543 4.91136 16.2663 4.99915 16.4226 5.15543C16.5788 5.31171 16.6666 5.52368 16.6666 5.74469V8.24469H11.6666C11.4456 8.24469 11.2337 8.33249 11.0774 8.48877C10.9211 8.64505 10.8333 8.85701 10.8333 9.07802V12.4114C10.8333 12.6324 10.9211 12.8443 11.0774 13.0006C11.2337 13.1569 11.4456 13.2447 11.6666 13.2447H16.6666V15.7447C16.6666 15.9657 16.5788 16.1777 16.4226 16.3339C16.2663 16.4902 16.0543 16.578 15.8333 16.578H4.16663C3.94561 16.578 3.73365 16.4902 3.57737 16.3339C3.42109 16.1777 3.33329 15.9657 3.33329 15.7447V5.74469Z" fill="#464255"/>
</svg>
